<svg id="Capa_1" data-name="Capa 1" xmlns="http://www.w3.org/2000/svg" viewBox="0 0 512 512"><defs><style>.cls-1,.cls-201{fill:#1dddf2;}.cls-1{opacity:0;}.cls-2{fill:#8a6df2;}.cls-3{fill:#8c6df2;}.cls-4{fill:#8d6ef2;}.cls-5{fill:#8f6ef2;}.cls-6{fill:#906ff2;}.cls-7{fill:#926ff2;}.cls-8{fill:#9370f2;}.cls-9{fill:#9570f2;}.cls-10{fill:#9671f2;}.cls-11{fill:#9871f2;}.cls-12{fill:#9972f2;}.cls-13{fill:#9b72f2;}.cls-14{fill:#9c73f2;}.cls-15{fill:#9e73f2;}.cls-16{fill:#9f74f2;}.cls-17{fill:#a174f2;}.cls-18{fill:#a275f2;}.cls-19{fill:#a475f2;}.cls-20{fill:#a575f2;}.cls-21{fill:#a776f2;}.cls-22{fill:#a876f2;}.cls-23{fill:#aa77f2;}.cls-24{fill:#ab77f2;}.cls-25{fill:#ad78f2;}.cls-26{fill:#ae78f2;}.cls-27{fill:#b079f2;}.cls-28{fill:#b179f2;}.cls-29{fill:#b37af2;}.cls-30{fill:#b47af2;}.cls-31{fill:#b67bf2;}.cls-32{fill:#b77bf2;}.cls-33{fill:#b97cf2;}.cls-34{fill:#ba7cf2;}.cls-35{fill:#bc7df2;}.cls-36{fill:#bd7df2;}.cls-37{fill:#bf7df2;}.cls-38{fill:#c17ef2;}.cls-39{fill:#c27ef2;}.cls-40{fill:#c47ff2;}.cls-41{fill:#c57ff2;}.cls-42{fill:#c780f2;}.cls-43{fill:#c880f2;}.cls-44{fill:#ca81f2;}.cls-45{fill:#cb81f2;}.cls-46{fill:#cd82f2;}.cls-47{fill:#ce82f2;}.cls-48{fill:#d083f2;}.cls-49{fill:#d183f2;}.cls-50{fill:#d384f2;}.cls-51{fill:#d484f2;}.cls-52{fill:#d685f2;}.cls-53{fill:#d785f2;}.cls-54{fill:#d985f2;}.cls-55{fill:#da86f2;}.cls-56{fill:#dc86f2;}.cls-57{fill:#dd87f2;}.cls-58{fill:#df87f2;}.cls-59{fill:#e088f2;}.cls-60{fill:#e288f2;}.cls-61{fill:#e389f2;}.cls-62{fill:#e589f2;}.cls-63{fill:#e68af2;}.cls-64{fill:#e88af2;}.cls-65{fill:#e98bf2;}.cls-66{fill:#eb8bf2;}.cls-67{fill:#ec8cf2;}.cls-68{fill:#ee8cf2;}.cls-69{fill:#ef8df2;}.cls-70{fill:#f18df2;}.cls-71{fill:#f08ef2;}.cls-72{fill:#f08ff2;}.cls-73{fill:#ef8ff3;}.cls-74{fill:#ee90f3;}.cls-75{fill:#ed91f3;}.cls-76{fill:#ed92f3;}.cls-77{fill:#ec92f3;}.cls-78{fill:#eb93f4;}.cls-79{fill:#eb94f4;}.cls-80{fill:#ea95f4;}.cls-81{fill:#e995f4;}.cls-82{fill:#e896f4;}.cls-83{fill:#e897f4;}.cls-84{fill:#e798f5;}.cls-85{fill:#e698f5;}.cls-86{fill:#e599f5;}.cls-87{fill:#e59af5;}.cls-88{fill:#e49bf5;}.cls-89{fill:#e39bf6;}.cls-90{fill:#e39cf6;}.cls-91{fill:#e29df6;}.cls-92{fill:#e19ef6;}.cls-93{fill:#e09ef6;}.cls-94{fill:#e09ff7;}.cls-95{fill:#dfa0f7;}.cls-96{fill:#dea1f7;}.cls-97{fill:#dda2f7;}.cls-98{fill:#dca3f8;}.cls-99{fill:#dba4f8;}.cls-100{fill:#daa5f8;}.cls-101{fill:#d9a6f8;}.cls-102{fill:#d8a7f9;}.cls-103{fill:#d7a8f9;}.cls-104{fill:#d6a9f9;}.cls-105{fill:#d5aaf9;}.cls-106{fill:#d4abfa;}.cls-107{fill:#d3acfa;}.cls-108{fill:#d2adfa;}.cls-109{fill:#d1aefa;}.cls-110{fill:#d1affb;}.cls-111{fill:#d0affb;}.cls-112{fill:#cfb0fb;}.cls-113{fill:#ceb1fb;}.cls-114{fill:#ceb2fb;}.cls-115{fill:#cdb2fc;}.cls-116{fill:#ccb3fc;}.cls-117{fill:#ccb4fc;}.cls-118{fill:#cbb5fc;}.cls-119{fill:#cab5fc;}.cls-120{fill:#c9b6fd;}.cls-121{fill:#c9b7fd;}.cls-122{fill:#c8b8fd;}.cls-123{fill:#c7b8fd;}.cls-124{fill:#c6b9fd;}.cls-125{fill:#c6bafd;}.cls-126{fill:#c5bbfe;}.cls-127{fill:#c4bbfe;}.cls-128{fill:#c4bcfe;}.cls-129{fill:#c3bdfe;}.cls-130{fill:#c2befe;}.cls-131{fill:#c1beff;}.cls-132{fill:#c1bfff;}.cls-133{fill:#c0c0ff;}.cls-134{fill:#bec0ff;}.cls-135{fill:#bbc1ff;}.cls-136{fill:#b9c1fe;}.cls-137{fill:#b6c2fe;}.cls-138{fill:#b4c2fe;}.cls-139{fill:#b2c3fe;}.cls-140{fill:#afc3fe;}.cls-141{fill:#adc3fd;}.cls-142{fill:#aac4fd;}.cls-143{fill:#a8c4fd;}.cls-144{fill:#a6c5fd;}.cls-145{fill:#a3c5fd;}.cls-146{fill:#a1c6fd;}.cls-147{fill:#9ec6fc;}.cls-148{fill:#9cc6fc;}.cls-149{fill:#9ac7fc;}.cls-150{fill:#97c7fc;}.cls-151{fill:#95c8fc;}.cls-152{fill:#92c8fb;}.cls-153{fill:#90c9fb;}.cls-154{fill:#8ec9fb;}.cls-155{fill:#8bc9fb;}.cls-156{fill:#89cafb;}.cls-157{fill:#86cafa;}.cls-158{fill:#84cbfa;}.cls-159{fill:#82cbfa;}.cls-160{fill:#7fccfa;}.cls-161{fill:#7dccfa;}.cls-162{fill:#7accf9;}.cls-163{fill:#78cdf9;}.cls-164{fill:#76cdf9;}.cls-165{fill:#73cef9;}.cls-166{fill:#71cef9;}.cls-167{fill:#6fcef9;}.cls-168{fill:#6ccff8;}.cls-169{fill:#6acff8;}.cls-170{fill:#67d0f8;}.cls-171{fill:#65d0f8;}.cls-172{fill:#63d1f8;}.cls-173{fill:#60d1f7;}.cls-174{fill:#5ed1f7;}.cls-175{fill:#5bd2f7;}.cls-176{fill:#59d2f7;}.cls-177{fill:#57d3f7;}.cls-178{fill:#54d3f6;}.cls-179{fill:#52d4f6;}.cls-180{fill:#4fd4f6;}.cls-181{fill:#4dd4f6;}.cls-182{fill:#4bd5f6;}.cls-183{fill:#48d5f5;}.cls-184{fill:#46d6f5;}.cls-185{fill:#43d6f5;}.cls-186{fill:#41d7f5;}.cls-187{fill:#3fd7f5;}.cls-188{fill:#3cd7f4;}.cls-189{fill:#3ad8f4;}.cls-190{fill:#37d8f4;}.cls-191{fill:#35d9f4;}.cls-192{fill:#33d9f4;}.cls-193{fill:#30daf4;}.cls-194{fill:#2edaf3;}.cls-195{fill:#2bdaf3;}.cls-196{fill:#29dbf3;}.cls-197{fill:#27dbf3;}.cls-198{fill:#24dcf3;}.cls-199{fill:#22dcf2;}.cls-200{fill:#1fddf2;}.cls-202{fill:#1ddef1;}.cls-203{fill:#1cdff0;}.cls-204{fill:#1cdfef;}.cls-205{fill:#1ce0ef;}.cls-206{fill:#1ce0ee;}.cls-207{fill:#1ce1ee;}.cls-208{fill:#1ce1ed;}.cls-209{fill:#1be2ed;}.cls-210{fill:#1be2ec;}.cls-211{fill:#1be3ec;}.cls-212{fill:#1be3eb;}.cls-213{fill:#1be4eb;}.cls-214{fill:#1be4ea;}.cls-215{fill:#1ae5ea;}.cls-216{fill:#1ae5e9;}.cls-217{fill:#1ae6e9;}.cls-218{fill:#1ae6e8;}.cls-219{fill:#1ae7e8;}.cls-220{fill:#1ae7e7;}.cls-221{fill:#19e8e7;}.cls-222{fill:#19e8e6;}.cls-223{fill:#19e9e6;}.cls-224{fill:#19e9e5;}.cls-225{fill:#19eae5;}.cls-226{fill:#19eae4;}.cls-227{fill:#18ebe4;}.cls-228{fill:#18ebe3;}.cls-229{fill:#18ece3;}.cls-230{fill:#18ece2;}.cls-231{fill:#18ede2;}.cls-232{fill:#18ede1;}.cls-233{fill:#17eee1;}.cls-234{fill:#17eee0;}.cls-235{fill:#17efe0;}.cls-236{fill:#17efdf;}.cls-237{fill:#17f0df;}.cls-238{fill:#17f0de;}.cls-239{fill:#16f1dd;}.cls-240{fill:#16f2dc;}</style></defs><rect class="cls-1" width="512" height="512"/><circle class="cls-2" cx="54.41" cy="376.51" r="40.54"/><circle class="cls-3" cx="55.7" cy="373.11" r="40.54"/><circle class="cls-4" cx="56.99" cy="369.71" r="40.54"/><circle class="cls-5" cx="58.28" cy="366.31" r="40.54"/><circle class="cls-6" cx="59.57" cy="362.92" r="40.54"/><circle class="cls-7" cx="60.86" cy="359.52" r="40.54"/><circle class="cls-8" cx="62.15" cy="356.12" r="40.54"/><circle class="cls-9" cx="63.44" cy="352.72" r="40.54"/><circle class="cls-10" cx="64.73" cy="349.32" r="40.54"/><circle class="cls-11" cx="66.01" cy="345.92" r="40.54"/><circle class="cls-12" cx="67.3" cy="342.52" r="40.54"/><circle class="cls-13" cx="68.59" cy="339.12" r="40.54"/><circle class="cls-14" cx="69.88" cy="335.72" r="40.54"/><circle class="cls-15" cx="71.17" cy="332.32" r="40.54"/><circle class="cls-16" cx="72.46" cy="328.92" r="40.54"/><circle class="cls-17" cx="73.75" cy="325.52" r="40.54"/><circle class="cls-18" cx="75.04" cy="322.12" r="40.54"/><circle class="cls-19" cx="76.33" cy="318.72" r="40.54"/><circle class="cls-20" cx="77.61" cy="315.32" r="40.54"/><circle class="cls-21" cx="78.9" cy="311.92" r="40.54"/><circle class="cls-22" cx="80.19" cy="308.52" r="40.54"/><circle class="cls-23" cx="81.48" cy="305.12" r="40.54"/><circle class="cls-24" cx="82.77" cy="301.72" r="40.54"/><circle class="cls-25" cx="84.06" cy="298.32" r="40.54"/><circle class="cls-26" cx="85.35" cy="294.93" r="40.54"/><circle class="cls-27" cx="86.64" cy="291.53" r="40.54"/><circle class="cls-28" cx="87.93" cy="288.13" r="40.54"/><circle class="cls-29" cx="89.21" cy="284.73" r="40.54"/><circle class="cls-30" cx="90.5" cy="281.33" r="40.54"/><circle class="cls-31" cx="91.79" cy="277.93" r="40.54"/><circle class="cls-32" cx="93.08" cy="274.53" r="40.54"/><circle class="cls-33" cx="94.37" cy="271.13" r="40.54"/><circle class="cls-34" cx="95.66" cy="267.73" r="40.54"/><circle class="cls-35" cx="96.95" cy="264.33" r="40.54"/><circle class="cls-36" cx="98.24" cy="260.93" r="40.54"/><circle class="cls-37" cx="99.53" cy="257.53" r="40.54"/><circle class="cls-38" cx="100.81" cy="254.13" r="40.54"/><circle class="cls-39" cx="102.1" cy="250.73" r="40.54"/><circle class="cls-40" cx="103.39" cy="247.33" r="40.54"/><circle class="cls-41" cx="104.68" cy="243.93" r="40.54"/><circle class="cls-42" cx="105.97" cy="240.53" r="40.54"/><circle class="cls-43" cx="107.26" cy="237.13" r="40.54"/><circle class="cls-44" cx="108.55" cy="233.73" r="40.54"/><circle class="cls-45" cx="109.84" cy="230.33" r="40.54"/><circle class="cls-46" cx="111.13" cy="226.94" r="40.54"/><circle class="cls-47" cx="112.42" cy="223.54" r="40.54"/><circle class="cls-48" cx="113.7" cy="220.14" r="40.54"/><circle class="cls-49" cx="114.99" cy="216.74" r="40.54"/><circle class="cls-50" cx="116.28" cy="213.34" r="40.54"/><circle class="cls-51" cx="117.57" cy="209.94" r="40.54"/><circle class="cls-52" cx="118.86" cy="206.54" r="40.54"/><circle class="cls-53" cx="120.15" cy="203.14" r="40.54"/><circle class="cls-54" cx="121.44" cy="199.74" r="40.54"/><circle class="cls-55" cx="122.73" cy="196.34" r="40.54"/><circle class="cls-56" cx="124.02" cy="192.94" r="40.54"/><circle class="cls-57" cx="125.3" cy="189.54" r="40.54"/><circle class="cls-58" cx="126.59" cy="186.14" r="40.54"/><circle class="cls-59" cx="127.88" cy="182.74" r="40.54"/><circle class="cls-60" cx="129.17" cy="179.34" r="40.54"/><circle class="cls-61" cx="130.46" cy="175.94" r="40.54"/><circle class="cls-62" cx="131.75" cy="172.54" r="40.54"/><circle class="cls-63" cx="133.04" cy="169.14" r="40.54"/><circle class="cls-64" cx="134.33" cy="165.74" r="40.54"/><circle class="cls-65" cx="135.62" cy="162.34" r="40.54"/><circle class="cls-66" cx="136.9" cy="158.94" r="40.54"/><circle class="cls-67" cx="138.19" cy="155.55" r="40.54"/><circle class="cls-68" cx="139.48" cy="152.15" r="40.54"/><circle class="cls-69" cx="140.77" cy="148.75" r="40.54"/><circle class="cls-70" cx="142.06" cy="145.35" r="40.54"/><circle class="cls-71" cx="143.25" cy="147.75" r="40.54"/><circle class="cls-72" cx="144.44" cy="150.15" r="40.54"/><circle class="cls-73" cx="145.64" cy="152.55" r="40.54"/><circle class="cls-74" cx="146.83" cy="154.95" r="40.54"/><circle class="cls-75" cx="148.02" cy="157.35" r="40.54"/><circle class="cls-76" cx="149.21" cy="159.75" r="40.54"/><circle class="cls-77" cx="150.41" cy="162.15" r="40.54"/><circle class="cls-78" cx="151.6" cy="164.55" r="40.54"/><circle class="cls-79" cx="152.79" cy="166.95" r="40.54"/><circle class="cls-80" cx="153.98" cy="169.35" r="40.54"/><circle class="cls-81" cx="155.17" cy="171.75" r="40.54"/><circle class="cls-82" cx="156.37" cy="174.15" r="40.54"/><circle class="cls-83" cx="157.56" cy="176.55" r="40.54"/><circle class="cls-84" cx="158.75" cy="178.96" r="40.54"/><circle class="cls-85" cx="159.94" cy="181.36" r="40.54"/><circle class="cls-86" cx="161.14" cy="183.76" r="40.54"/><circle class="cls-87" cx="162.33" cy="186.16" r="40.54"/><circle class="cls-88" cx="163.52" cy="188.56" r="40.54"/><circle class="cls-89" cx="164.71" cy="190.96" r="40.54"/><circle class="cls-90" cx="165.91" cy="193.36" r="40.54"/><circle class="cls-91" cx="167.1" cy="195.76" r="40.54"/><circle class="cls-92" cx="168.29" cy="198.16" r="40.54"/><circle class="cls-93" cx="169.48" cy="200.56" r="40.54"/><circle class="cls-94" cx="170.67" cy="202.96" r="40.54"/><circle class="cls-95" cx="171.87" cy="205.36" r="40.54"/><circle class="cls-96" cx="173.06" cy="207.76" r="40.54"/><circle class="cls-96" cx="174.25" cy="210.16" r="40.54"/><circle class="cls-97" cx="175.44" cy="212.56" r="40.54"/><circle class="cls-98" cx="176.64" cy="214.96" r="40.54"/><circle class="cls-99" cx="177.83" cy="217.36" r="40.54"/><circle class="cls-99" cx="179.02" cy="219.77" r="40.54"/><circle class="cls-100" cx="180.21" cy="222.17" r="40.54"/><circle class="cls-101" cx="181.4" cy="224.57" r="40.54"/><circle class="cls-101" cx="182.6" cy="226.97" r="40.54"/><circle class="cls-102" cx="183.79" cy="229.37" r="40.54"/><circle class="cls-103" cx="184.98" cy="231.77" r="40.54"/><circle class="cls-104" cx="186.17" cy="234.17" r="40.54"/><circle class="cls-104" cx="187.37" cy="236.57" r="40.54"/><circle class="cls-105" cx="188.56" cy="238.97" r="40.54"/><circle class="cls-106" cx="189.75" cy="241.37" r="40.54"/><circle class="cls-107" cx="190.94" cy="243.77" r="40.54"/><circle class="cls-107" cx="192.13" cy="246.17" r="40.54"/><circle class="cls-108" cx="193.33" cy="248.57" r="40.54"/><circle class="cls-109" cx="194.52" cy="250.97" r="40.54"/><circle class="cls-110" cx="195.71" cy="253.37" r="40.54"/><circle class="cls-111" cx="196.9" cy="255.77" r="40.54"/><circle class="cls-112" cx="198.1" cy="258.18" r="40.54"/><circle class="cls-113" cx="199.29" cy="260.58" r="40.54"/><circle class="cls-114" cx="200.48" cy="262.98" r="40.54"/><circle class="cls-115" cx="201.67" cy="265.38" r="40.54"/><circle class="cls-116" cx="202.86" cy="267.78" r="40.54"/><circle class="cls-117" cx="204.06" cy="270.18" r="40.54"/><circle class="cls-118" cx="205.25" cy="272.58" r="40.54"/><circle class="cls-119" cx="206.44" cy="274.98" r="40.54"/><circle class="cls-120" cx="207.63" cy="277.38" r="40.54"/><circle class="cls-121" cx="208.83" cy="279.78" r="40.54"/><circle class="cls-122" cx="210.02" cy="282.18" r="40.54"/><circle class="cls-123" cx="211.21" cy="284.58" r="40.54"/><circle class="cls-124" cx="212.4" cy="286.98" r="40.54"/><circle class="cls-125" cx="213.59" cy="289.38" r="40.54"/><circle class="cls-126" cx="214.79" cy="291.78" r="40.54"/><circle class="cls-127" cx="215.98" cy="294.18" r="40.54"/><circle class="cls-128" cx="217.17" cy="296.58" r="40.54"/><circle class="cls-129" cx="218.36" cy="298.99" r="40.54"/><circle class="cls-130" cx="219.56" cy="301.39" r="40.54"/><circle class="cls-131" cx="220.75" cy="303.79" r="40.54"/><circle class="cls-132" cx="221.94" cy="306.19" r="40.54"/><circle class="cls-133" cx="223.13" cy="308.59" r="40.54"/><circle class="cls-134" cx="225.63" cy="305.59" r="40.54"/><circle class="cls-135" cx="228.13" cy="302.59" r="40.54"/><circle class="cls-136" cx="230.62" cy="299.6" r="40.54"/><circle class="cls-137" cx="233.12" cy="296.6" r="40.54"/><circle class="cls-138" cx="235.62" cy="293.6" r="40.54"/><circle class="cls-139" cx="238.12" cy="290.61" r="40.54"/><circle class="cls-140" cx="240.61" cy="287.61" r="40.54"/><circle class="cls-141" cx="243.11" cy="284.61" r="40.54"/><circle class="cls-142" cx="245.61" cy="281.62" r="40.54"/><circle class="cls-143" cx="248.11" cy="278.62" r="40.54"/><circle class="cls-144" cx="250.6" cy="275.62" r="40.54"/><circle class="cls-145" cx="253.1" cy="272.63" r="40.54"/><circle class="cls-146" cx="255.6" cy="269.63" r="40.54"/><circle class="cls-147" cx="258.09" cy="266.63" r="40.54"/><circle class="cls-148" cx="260.59" cy="263.64" r="40.54"/><circle class="cls-149" cx="263.09" cy="260.64" r="40.54"/><circle class="cls-150" cx="265.59" cy="257.64" r="40.54"/><circle class="cls-151" cx="268.08" cy="254.65" r="40.54"/><circle class="cls-152" cx="270.58" cy="251.65" r="40.54"/><circle class="cls-153" cx="273.08" cy="248.65" r="40.54"/><circle class="cls-154" cx="275.58" cy="245.66" r="40.54"/><circle class="cls-155" cx="278.07" cy="242.66" r="40.54"/><circle class="cls-156" cx="280.57" cy="239.66" r="40.54"/><circle class="cls-157" cx="283.07" cy="236.67" r="40.54"/><circle class="cls-158" cx="285.56" cy="233.67" r="40.54"/><circle class="cls-159" cx="288.06" cy="230.67" r="40.54"/><circle class="cls-160" cx="290.56" cy="227.68" r="40.54"/><circle class="cls-161" cx="293.06" cy="224.68" r="40.54"/><circle class="cls-162" cx="295.55" cy="221.68" r="40.54"/><circle class="cls-163" cx="298.05" cy="218.69" r="40.54"/><circle class="cls-164" cx="300.55" cy="215.69" r="40.54"/><circle class="cls-165" cx="303.05" cy="212.69" r="40.54"/><circle class="cls-166" cx="305.54" cy="209.7" r="40.54"/><circle class="cls-167" cx="308.04" cy="206.7" r="40.54"/><circle class="cls-168" cx="310.54" cy="203.7" r="40.54"/><circle class="cls-169" cx="313.03" cy="200.71" r="40.54"/><circle class="cls-170" cx="315.53" cy="197.71" r="40.54"/><circle class="cls-171" cx="318.03" cy="194.71" r="40.54"/><circle class="cls-172" cx="320.53" cy="191.72" r="40.54"/><circle class="cls-173" cx="323.02" cy="188.72" r="40.54"/><circle class="cls-174" cx="325.52" cy="185.72" r="40.54"/><circle class="cls-175" cx="328.02" cy="182.73" r="40.54"/><circle class="cls-176" cx="330.52" cy="179.73" r="40.54"/><circle class="cls-177" cx="333.01" cy="176.73" r="40.54"/><circle class="cls-178" cx="335.51" cy="173.74" r="40.54"/><circle class="cls-179" cx="338.01" cy="170.74" r="40.54"/><circle class="cls-180" cx="340.5" cy="167.74" r="40.54"/><circle class="cls-181" cx="343" cy="164.75" r="40.54"/><circle class="cls-182" cx="345.5" cy="161.75" r="40.54"/><circle class="cls-183" cx="348" cy="158.75" r="40.54"/><circle class="cls-184" cx="350.49" cy="155.75" r="40.54"/><circle class="cls-185" cx="352.99" cy="152.76" r="40.54"/><circle class="cls-186" cx="355.49" cy="149.76" r="40.54"/><circle class="cls-187" cx="357.99" cy="146.76" r="40.54"/><circle class="cls-188" cx="360.48" cy="143.77" r="40.54"/><circle class="cls-189" cx="362.98" cy="140.77" r="40.54"/><circle class="cls-190" cx="365.48" cy="137.77" r="40.54"/><circle class="cls-191" cx="367.97" cy="134.78" r="40.54"/><circle class="cls-192" cx="370.47" cy="131.78" r="40.54"/><circle class="cls-193" cx="372.97" cy="128.78" r="40.54"/><circle class="cls-194" cx="375.47" cy="125.79" r="40.54"/><circle class="cls-195" cx="377.96" cy="122.79" r="40.54"/><circle class="cls-196" cx="380.46" cy="119.79" r="40.54"/><circle class="cls-197" cx="382.96" cy="116.8" r="40.54"/><circle class="cls-198" cx="385.46" cy="113.8" r="40.54"/><circle class="cls-199" cx="387.95" cy="110.8" r="40.54"/><circle class="cls-200" cx="390.45" cy="107.81" r="40.54"/><circle class="cls-201" cx="392.95" cy="104.81" r="40.54"/><circle class="cls-201" cx="393.9" cy="109.26" r="40.54"/><circle class="cls-202" cx="394.85" cy="113.7" r="40.54"/><circle class="cls-202" cx="395.8" cy="118.15" r="40.54"/><circle class="cls-202" cx="396.75" cy="122.6" r="40.54"/><circle class="cls-203" cx="397.7" cy="127.04" r="40.54"/><circle class="cls-203" cx="398.65" cy="131.49" r="40.54"/><circle class="cls-203" cx="399.6" cy="135.94" r="40.54"/><circle class="cls-204" cx="400.55" cy="140.38" r="40.54"/><circle class="cls-205" cx="401.5" cy="144.83" r="40.54"/><circle class="cls-205" cx="402.45" cy="149.28" r="40.54"/><circle class="cls-206" cx="403.4" cy="153.72" r="40.54"/><circle class="cls-207" cx="404.35" cy="158.17" r="40.54"/><circle class="cls-207" cx="405.3" cy="162.62" r="40.54"/><circle class="cls-208" cx="406.25" cy="167.07" r="40.54"/><circle class="cls-209" cx="407.21" cy="171.51" r="40.54"/><circle class="cls-209" cx="408.16" cy="175.96" r="40.54"/><circle class="cls-210" cx="409.11" cy="180.41" r="40.54"/><circle class="cls-211" cx="410.06" cy="184.85" r="40.54"/><circle class="cls-211" cx="411.01" cy="189.3" r="40.54"/><circle class="cls-211" cx="411.96" cy="193.75" r="40.54"/><circle class="cls-212" cx="412.91" cy="198.19" r="40.54"/><circle class="cls-213" cx="413.86" cy="202.64" r="40.54"/><circle class="cls-213" cx="414.81" cy="207.09" r="40.54"/><circle class="cls-214" cx="415.76" cy="211.53" r="40.54"/><circle class="cls-215" cx="416.71" cy="215.98" r="40.54"/><circle class="cls-215" cx="417.66" cy="220.43" r="40.54"/><circle class="cls-216" cx="418.61" cy="224.87" r="40.54"/><circle class="cls-217" cx="419.56" cy="229.32" r="40.54"/><circle class="cls-217" cx="420.51" cy="233.77" r="40.54"/><circle class="cls-218" cx="421.46" cy="238.21" r="40.54"/><circle class="cls-219" cx="422.41" cy="242.66" r="40.54"/><circle class="cls-219" cx="423.37" cy="247.11" r="40.54"/><circle class="cls-220" cx="424.32" cy="251.55" r="40.54"/><circle class="cls-220" cx="425.27" cy="256" r="40.54"/><circle class="cls-221" cx="426.22" cy="260.45" r="40.54"/><circle class="cls-222" cx="427.17" cy="264.89" r="40.54"/><circle class="cls-222" cx="428.12" cy="269.34" r="40.54"/><circle class="cls-223" cx="429.07" cy="273.79" r="40.54"/><circle class="cls-224" cx="430.02" cy="278.23" r="40.54"/><circle class="cls-224" cx="430.97" cy="282.68" r="40.54"/><circle class="cls-225" cx="431.92" cy="287.13" r="40.54"/><circle class="cls-226" cx="432.87" cy="291.57" r="40.54"/><circle class="cls-226" cx="433.82" cy="296.02" r="40.54"/><circle class="cls-227" cx="434.77" cy="300.47" r="40.54"/><circle class="cls-228" cx="435.72" cy="304.91" r="40.54"/><circle class="cls-228" cx="436.67" cy="309.36" r="40.54"/><circle class="cls-229" cx="437.62" cy="313.81" r="40.54"/><circle class="cls-230" cx="438.57" cy="318.25" r="40.54"/><circle class="cls-230" cx="439.52" cy="322.7" r="40.54"/><circle class="cls-230" cx="440.48" cy="327.15" r="40.54"/><circle class="cls-231" cx="441.43" cy="331.59" r="40.54"/><circle class="cls-232" cx="442.38" cy="336.04" r="40.54"/><circle class="cls-232" cx="443.33" cy="340.49" r="40.54"/><circle class="cls-233" cx="444.28" cy="344.93" r="40.54"/><circle class="cls-234" cx="445.23" cy="349.38" r="40.54"/><circle class="cls-234" cx="446.18" cy="353.83" r="40.54"/><circle class="cls-235" cx="447.13" cy="358.28" r="40.54"/><circle class="cls-236" cx="448.08" cy="362.72" r="40.54"/><circle class="cls-236" cx="449.03" cy="367.17" r="40.54"/><circle class="cls-237" cx="449.98" cy="371.62" r="40.54"/><circle class="cls-238" cx="450.93" cy="376.06" r="40.54"/><circle class="cls-238" cx="451.88" cy="380.51" r="40.54"/><circle class="cls-238" cx="452.83" cy="384.96" r="40.54"/><circle class="cls-239" cx="453.78" cy="389.4" r="40.54"/><circle class="cls-239" cx="454.73" cy="393.85" r="40.54"/><circle class="cls-239" cx="455.68" cy="398.3" r="40.54"/><circle class="cls-240" cx="456.64" cy="402.74" r="40.54"/><circle class="cls-240" cx="457.59" cy="407.19" r="40.54"/></svg>